<?xml version="1.0" encoding="UTF-8"?>
<svg id="Layer_1" data-name="Layer 1" xmlns="http://www.w3.org/2000/svg" viewBox="0 0 100.14 100.14">
  <defs>
    <style>
      .cls-1 {
        fill: #fff;
        fill-rule: evenodd;
      }

      .cls-2 {
        fill: #00dce1;
      }
    </style>
  </defs>
  <circle class="cls-2" cx="50.07" cy="50.07" r="50.07"/>
  <path class="cls-1" d="m35.34,18.18h29.45c9.46,0,17.25,7.78,17.25,17.25v29.3c0,9.46-7.78,17.25-17.25,17.25h-29.45c-9.46,0-17.25-7.78-17.25-17.25v-29.3c0-9.46,7.78-17.25,17.25-17.25h0Zm31.9,11.14h0c1.98,0,3.66,1.68,3.66,3.66h0c0,1.98-1.68,3.66-3.66,3.66h0c-2.14,0-3.66-1.68-3.66-3.66h0c0-1.98,1.53-3.66,3.66-3.66h0Zm-17.25,3.36h.15c9.46,0,17.4,7.94,17.4,17.4h0c0,9.61-7.94,17.4-17.4,17.4h-.15c-9.46,0-17.25-7.78-17.25-17.4h0c0-9.46,7.78-17.4,17.25-17.4h0Zm0,5.95h.15c6.26,0,11.45,5.19,11.45,11.45h0c0,6.41-5.19,11.6-11.45,11.6h-.15c-6.26,0-11.45-5.19-11.45-11.6h0c0-6.26,5.19-11.45,11.45-11.45h0Zm-14.5-14.96h29.15c6.56,0,11.9,5.34,11.9,11.9v29c0,6.56-5.34,11.9-11.9,11.9h-29.15c-6.56,0-11.9-5.34-11.9-11.9v-29c0-6.56,5.34-11.9,11.9-11.9h0Z"/>
</svg>