<?xml version="1.0" encoding="UTF-8"?>
<svg id="Layer_1" data-name="Layer 1" xmlns="http://www.w3.org/2000/svg" viewBox="0 0 100 100">
  <defs>
    <style>
      .cls-1 {
        fill: #fff;
        fill-rule: evenodd;
      }

      .cls-2 {
        fill: #00dce1;
      }
    </style>
  </defs>
  <circle class="cls-2" cx="50" cy="50" r="50"/>
  <path class="cls-1" d="m22.19,39.96h11.26v37.81h-11.26v-37.81Zm5.56-19.18c3.75,0,6.81,3.06,6.81,6.81s-3.06,6.81-6.81,6.81-6.67-3.06-6.67-6.81,2.92-6.81,6.67-6.81h0Zm12.37,19.18h11.12v5.28c2.36-3.48,6.26-5.7,10.7-5.7h3.06c7.09,0,12.79,5.84,12.79,12.79v25.44h-11.12v-3.48h0v-16.96h0c-.14-4.31-3.06-7.65-7.37-7.65h0c-4.31,0-7.92,3.34-8.06,7.65h0v20.44h-11.12v-37.81Z"/>
</svg>